<?xml version="1.0" encoding="UTF-8"?> <svg xmlns="http://www.w3.org/2000/svg" width="57" height="57" viewBox="0 0 57 57" fill="none"> <circle cx="28.4999" cy="28.4999" r="27.9999" stroke="#202020"></circle> <path d="M35.2375 16H22.4125C18.8859 16 16 18.8847 16 22.4125V35.2375C16 38.7641 18.8859 41.65 22.4125 41.65H35.2375C38.7641 41.65 41.65 38.7641 41.65 35.2375V22.4125C41.65 18.8847 38.7641 16 35.2375 16ZM28.825 34.1685C25.8733 34.1685 23.4811 31.7754 23.4811 28.825C23.4811 25.8733 25.8733 23.4811 28.825 23.4811C31.7754 23.4811 34.1689 25.8733 34.1689 28.825C34.1689 31.7754 31.7754 34.1685 28.825 34.1685ZM35.772 23.4811C34.8858 23.4811 34.1689 22.7632 34.1689 21.878C34.1689 20.9928 34.8858 20.2749 35.772 20.2749C36.6582 20.2749 37.3751 20.9928 37.3751 21.878C37.3751 22.7632 36.6582 23.4811 35.772 23.4811Z" fill="#202020"></path> </svg> 