<?xml version="1.0" encoding="UTF-8"?> <svg xmlns="http://www.w3.org/2000/svg" width="57" height="57" viewBox="0 0 57 57" fill="none"> <circle cx="28.4999" cy="28.4999" r="27.9999" fill="#202020" stroke="#202020"></circle> <path d="M16.0769 20C15.6687 20 15.294 20.1226 14.9736 20.3245L27.262 30.72C27.8246 31.1964 28.5827 31.1963 29.1442 30.72L41.4111 20.3245C41.0907 20.1226 40.7159 20 40.3077 20H16.0769ZM14.119 21.3954C14.0449 21.6093 14 21.8372 14 22.0769V35.9231C14 36.3402 14.1253 36.7234 14.3354 37.0481L23.1298 29.0325L14.119 21.3954ZM42.2656 21.3954L33.2764 29.0216L42.0493 37.0481C42.2593 36.7234 42.3846 36.3402 42.3846 35.9231V22.0769C42.3846 21.8372 42.3397 21.6093 42.2656 21.3954ZM32.2163 29.9303L30.0313 31.78C28.9744 32.6766 27.4211 32.6753 26.3642 31.78L24.1899 29.9411L15.4604 37.9027C15.6557 37.9632 15.8612 38 16.0769 38H40.3077C40.5234 38 40.7289 37.9632 40.9243 37.9027L32.2163 29.9303Z" fill="white"></path> </svg> 