<?xml version="1.0" encoding="UTF-8"?> <svg xmlns="http://www.w3.org/2000/svg" width="57" height="57" viewBox="0 0 57 57" fill="none"> <circle cx="28.4999" cy="28.4999" r="27.9999" fill="#202020" stroke="#202020"></circle> <path d="M38.0048 40.7496C39.4293 38.9281 39.3182 38.2294 37.7121 36.6019C36.6953 35.5735 35.6239 34.5954 34.6547 33.5238C33.868 32.6502 33.0912 32.5788 32.1845 33.2453C32.0932 33.3117 31.995 33.3629 31.9077 33.4323C28.7183 35.9173 27.5051 35.3986 25.1103 31.1956C22.7155 26.9906 22.8782 25.6676 26.5964 24.1105C26.6995 24.0673 26.7918 24.0059 26.895 23.9607C27.9178 23.4983 28.2431 22.7815 27.893 21.6526C27.4604 20.2664 27.1608 18.8379 26.7908 17.4325C26.2035 15.2069 25.6609 14.7615 23.3921 15.1023C22.5181 15.233 17.7891 16.371 18.0073 23.2641C18.1274 27.0831 18.9299 30.1411 20.9249 33.6434C22.9209 37.1468 25.1331 39.3774 28.3364 41.393C34.118 45.032 37.4562 41.4513 38.0048 40.7496Z" fill="white"></path> </svg> 