<?xml version="1.0" encoding="UTF-8"?> <svg xmlns="http://www.w3.org/2000/svg" width="57" height="57" viewBox="0 0 57 57" fill="none"> <circle cx="28.4999" cy="28.4999" r="27.9999" stroke="#202020"></circle> <path d="M41.4651 21.2612C39.8075 21.2612 38.2781 20.7121 37.05 19.7857C35.6414 18.7238 34.6294 17.166 34.272 15.3706C34.1835 14.9269 34.1358 14.4691 34.1313 14H29.3962V26.9386L29.3905 34.0256C29.3905 35.9203 28.1567 37.5269 26.4463 38.0919C25.95 38.2558 25.4139 38.3335 24.8557 38.3029C24.1432 38.2638 23.4755 38.0488 22.8952 37.7016C21.6602 36.963 20.8229 35.6231 20.8002 34.0903C20.7644 31.6946 22.7011 29.7415 25.0951 29.7415C25.5676 29.7415 26.0214 29.8186 26.4463 29.9588V26.4223V25.1511C25.9982 25.0847 25.5421 25.0501 25.0809 25.0501C22.4606 25.0501 20.01 26.1393 18.2582 28.1015C16.9342 29.5844 16.14 31.4762 16.0174 33.46C15.8569 36.0661 16.8105 38.5434 18.6598 40.3712C18.9316 40.6395 19.2169 40.8886 19.5153 41.1183C21.1008 42.3385 23.0392 43 25.0809 43C25.5421 43 25.9982 42.966 26.4463 42.8996C28.3535 42.6171 30.1132 41.744 31.502 40.3712C33.2083 38.6847 34.1512 36.4456 34.1614 34.0625L34.137 23.4793C34.951 24.1073 35.8411 24.6269 36.7964 25.0302C38.2821 25.6571 39.8574 25.9747 41.4787 25.9742V22.5359V21.2601C41.4799 21.2612 41.4663 21.2612 41.4651 21.2612Z" fill="#202020"></path> </svg> 